<?xml version="1.0" encoding="iso-8859-1"?>
<!-- Generator: Adobe Illustrator 21.0.0, SVG Export Plug-In . SVG Version: 6.00 Build 0)  -->
<svg xmlns="http://www.w3.org/2000/svg" xmlns:xlink="http://www.w3.org/1999/xlink" version="1.1" id="Capa_1" x="0px" y="0px" viewBox="0 0 510.909 510.909" style="enable-background:new 0 0 510.909 510.909;" xml:space="preserve" width="512" height="512">
<g>
	<path style="fill:#E0E0E0;" d="M475,100.486H35.91c-19.801,0-35.91,16.109-35.91,35.91v159.691c0,19.801,16.109,35.91,35.91,35.91   H475c19.801,0,35.91-16.109,35.91-35.91V136.396C510.909,116.596,494.8,100.486,475,100.486z"/>
	<path style="fill:#C4C4C4;" d="M475,299.611H35.91c-19.801,0-35.91-16.109-35.91-35.91v32.387c0,19.801,16.109,35.91,35.91,35.91   H475c19.801,0,35.91-16.109,35.91-35.91v-32.387C510.909,283.502,494.8,299.611,475,299.611z"/>
	<path style="fill:#66BAEA;" d="M449.541,260.631H61.368c-4.142,0-7.5,3.357-7.5,7.5v56.367c0,4.143,3.358,7.5,7.5,7.5h388.173   c4.142,0,7.5-3.357,7.5-7.5v-56.367C457.041,263.988,453.683,260.631,449.541,260.631z"/>
	<path style="fill:#3AAAE4;" d="M53.868,297.498v27c0,4.143,3.358,7.5,7.5,7.5h388.173c4.142,0,7.5-3.357,7.5-7.5v-27H53.868z"/>
	<rect x="53.868" y="288.814" style="fill:#67676B;" width="403.173" height="15"/>
	<path style="fill:#AAAAAA;" d="M449.541,161.467H427.36c-4.142,0-7.5-3.357-7.5-7.5c0-4.143,3.358-7.5,7.5-7.5h22.181   c4.142,0,7.5,3.357,7.5,7.5C457.041,158.109,453.683,161.467,449.541,161.467z"/>
	<path style="fill:#AAAAAA;" d="M393.139,161.467H251.183c-4.142,0-7.5-3.357-7.5-7.5c0-4.143,3.358-7.5,7.5-7.5h141.956   c4.142,0,7.5,3.357,7.5,7.5C400.639,158.109,397.281,161.467,393.139,161.467z"/>
	<g>
		<path style="fill:#66BAEA;" d="M116.886,410.423c-2.346,0-4.657-1.098-6.12-3.156c-2.399-3.376-1.608-8.059,1.768-10.458    c20.807-14.788,21.047-37.022,21.047-37.245c0-4.143,3.358-7.5,7.5-7.5c4.142,0,7.5,3.357,7.5,7.5    c0,1.226-0.311,30.248-27.357,49.472C119.906,409.972,118.389,410.423,116.886,410.423z"/>
		<path style="fill:#66BAEA;" d="M194.783,410.422c-4.142,0-7.5-3.357-7.5-7.5v-43.358c0-4.143,3.358-7.5,7.5-7.5    c4.142,0,7.5,3.357,7.5,7.5v43.358C202.283,407.064,198.925,410.422,194.783,410.422z"/>
		<path style="fill:#66BAEA;" d="M257.564,410.422c-4.142,0-7.5-3.357-7.5-7.5v-43.358c0-4.143,3.358-7.5,7.5-7.5    c4.142,0,7.5,3.357,7.5,7.5v43.358C265.064,407.064,261.706,410.422,257.564,410.422z"/>
		<path style="fill:#66BAEA;" d="M394.023,410.423c-1.503,0-3.021-0.451-4.339-1.388c-27.046-19.224-27.357-48.246-27.357-49.472    c0-4.143,3.358-7.5,7.5-7.5c4.131,0,7.482,3.339,7.5,7.466c0.012,0.998,0.521,22.69,21.047,37.279    c3.376,2.399,4.168,7.082,1.768,10.458C398.68,409.324,396.369,410.422,394.023,410.423z M377.328,359.564h0.01H377.328z"/>
		<path style="fill:#66BAEA;" d="M316.126,410.422c-4.142,0-7.5-3.357-7.5-7.5v-43.358c0-4.143,3.358-7.5,7.5-7.5    c4.142,0,7.5,3.357,7.5,7.5v43.358C323.626,407.064,320.268,410.422,316.126,410.422z"/>
	</g>
</g>















</svg>
