<svg xmlns="http://www.w3.org/2000/svg" width="259" height="47" fill="none" viewBox="0 0 259 47"><path fill="#fff" d="M12.4 46.24C10.192 46.24 8.192 45.696 6.4 44.608C4.64 43.52 3.248 41.952 2.224 39.904C1.2 37.824 0.688 35.376 0.688 32.56C0.688 27.696 1.728 23.2 3.808 19.072C5.888 14.912 8.96 11.584 13.024 9.088C17.088 6.56 21.968 5.296 27.664 5.296C29.136 5.296 30.704 5.408 32.368 5.632C34.064 5.856 35.6 6.192 36.976 6.64C37.872 6.896 38.32 7.536 38.32 8.56C38.32 9.392 38 10.176 37.36 10.912C36.752 11.648 36.032 12.016 35.2 12.016C34.944 12.016 34.752 12 34.624 11.968C32.96 11.584 31.536 11.312 30.352 11.152C29.168 10.96 27.92 10.864 26.608 10.864C22.544 10.864 19.088 11.856 16.24 13.84C13.392 15.792 11.264 18.384 9.856 21.616C8.448 24.848 7.744 28.336 7.744 32.08C7.744 34.8 8.272 36.912 9.328 38.416C10.416 39.888 11.824 40.624 13.552 40.624C15.504 40.624 17.216 39.824 18.688 38.224C20.16 36.624 21.504 34.032 22.72 30.448C23.936 26.864 25.136 22 26.32 15.856C26.512 14.96 26.896 14.352 27.472 14.032C28.048 13.712 28.816 13.552 29.776 13.552C32.048 13.552 33.184 14.288 33.184 15.76C33.184 16.016 33.136 16.336 33.04 16.72C32.208 19.824 31.44 23.264 30.736 27.04C30.064 30.784 29.728 33.632 29.728 35.584C29.728 37.312 29.984 38.576 30.496 39.376C31.008 40.144 31.792 40.528 32.848 40.528C33.872 40.528 34.848 40.192 35.776 39.52C36.704 38.816 37.872 37.632 39.28 35.968C39.664 35.52 40.096 35.296 40.576 35.296C40.992 35.296 41.312 35.488 41.536 35.872C41.792 36.256 41.92 36.784 41.92 37.456C41.92 38.704 41.616 39.696 41.008 40.432C39.44 42.32 37.904 43.76 36.4 44.752C34.896 45.744 33.056 46.24 30.88 46.24C28.64 46.24 26.832 45.6 25.456 44.32C24.08 43.008 23.216 41.168 22.864 38.8C20.496 43.76 17.008 46.24 12.4 46.24ZM44.3264 20.464C42.9824 20.464 41.9744 20.16 41.3024 19.552C40.6304 18.912 40.2944 18.032 40.2944 16.912C40.2944 15.792 40.7264 14.864 41.5904 14.128C42.4864 13.36 43.5904 12.976 44.9024 12.976C46.0864 12.976 47.0464 13.264 47.7824 13.84C48.5184 14.416 48.8864 15.232 48.8864 16.288C48.8864 17.568 48.4704 18.592 47.6384 19.36C46.8064 20.096 45.7024 20.464 44.3264 20.464ZM43.9424 46.24C41.8624 46.24 40.3424 45.504 39.3824 44.032C38.4544 42.56 37.9904 40.608 37.9904 38.176C37.9904 36.736 38.1664 34.896 38.5184 32.656C38.9024 30.384 39.3824 28.272 39.9584 26.32C40.2464 25.296 40.6304 24.592 41.1104 24.208C41.5904 23.824 42.3584 23.632 43.4144 23.632C45.0464 23.632 45.8624 24.176 45.8624 25.264C45.8624 26.064 45.5584 27.92 44.9504 30.832C44.1824 34.352 43.7984 36.736 43.7984 37.984C43.7984 38.944 43.9264 39.68 44.1824 40.192C44.4384 40.704 44.8704 40.96 45.4784 40.96C46.0544 40.96 46.7744 40.56 47.6384 39.76C48.5024 38.96 49.6544 37.696 51.0944 35.968C51.4784 35.52 51.9104 35.296 52.3904 35.296C52.8064 35.296 53.1264 35.488 53.3504 35.872C53.6064 36.256 53.7344 36.784 53.7344 37.456C53.7344 38.736 53.4304 39.728 52.8224 40.432C49.6544 44.304 46.6944 46.24 43.9424 46.24ZM53.2589 46.24C52.0429 46.24 51.1789 45.6 50.6669 44.32C50.1869 43.04 49.9469 40.992 49.9469 38.176C49.9469 34.016 50.5389 30.064 51.7229 26.32C52.0109 25.392 52.4749 24.72 53.1149 24.304C53.7869 23.856 54.7149 23.632 55.8989 23.632C56.5389 23.632 56.9869 23.712 57.2429 23.872C57.4989 24.032 57.6269 24.336 57.6269 24.784C57.6269 25.296 57.3869 26.448 56.9069 28.24C56.5869 29.52 56.3309 30.64 56.1389 31.6C55.9469 32.56 55.7869 33.744 55.6589 35.152C56.7149 32.4 57.8989 30.16 59.2109 28.432C60.5229 26.704 61.8029 25.472 63.0509 24.736C64.3309 24 65.4989 23.632 66.5549 23.632C68.6349 23.632 69.6749 24.672 69.6749 26.752C69.6749 27.168 69.5309 28.176 69.2429 29.776C68.9869 31.056 68.8589 31.856 68.8589 32.176C68.8589 33.296 69.2589 33.856 70.0589 33.856C70.9549 33.856 72.1069 33.152 73.5149 31.744C73.9309 31.328 74.3629 31.12 74.8109 31.12C75.2269 31.12 75.5469 31.312 75.7709 31.696C76.0269 32.048 76.1549 32.528 76.1549 33.136C76.1549 34.32 75.8349 35.248 75.1949 35.92C74.2989 36.848 73.2429 37.648 72.0269 38.32C70.8429 38.96 69.5789 39.28 68.2349 39.28C66.5389 39.28 65.2429 38.848 64.3469 37.984C63.4829 37.12 63.0509 35.952 63.0509 34.48C63.0509 34 63.0989 33.52 63.1949 33.04C63.2589 32.4 63.2909 31.968 63.2909 31.744C63.2909 31.232 63.1149 30.976 62.7629 30.976C62.2829 30.976 61.6429 31.52 60.8429 32.608C60.0749 33.664 59.3069 35.072 58.5389 36.832C57.7709 38.592 57.1469 40.448 56.6669 42.4C56.3149 43.904 55.8989 44.928 55.4189 45.472C54.9709 45.984 54.2509 46.24 53.2589 46.24ZM91.1346 46.24C87.3266 46.24 84.0146 45.552 81.1986 44.176C78.3826 42.768 76.2226 40.784 74.7186 38.224C73.2146 35.664 72.4626 32.688 72.4626 29.296C72.4626 24.592 73.3426 20.416 75.1026 16.768C76.8946 13.12 79.3106 10.304 82.3506 8.32C85.3906 6.304 88.7666 5.296 92.4786 5.296C95.9346 5.296 98.5586 6.192 100.351 7.984C102.143 9.744 103.039 12.08 103.039 14.992C103.039 16.944 102.687 18.512 101.983 19.696C101.311 20.88 100.335 21.472 99.0546 21.472C98.1586 21.472 97.4546 21.264 96.9426 20.848C96.4306 20.432 96.1746 19.824 96.1746 19.024C96.1746 18.736 96.2386 18.208 96.3666 17.44C96.5586 16.48 96.6546 15.712 96.6546 15.136C96.6546 12.224 95.1026 10.768 91.9986 10.768C89.8866 10.768 87.8706 11.456 85.9506 12.832C84.0306 14.208 82.4786 16.24 81.2946 18.928C80.1106 21.584 79.5186 24.752 79.5186 28.432C79.5186 32.272 80.5906 35.248 82.7346 37.36C84.8786 39.44 88.0466 40.48 92.2386 40.48C94.3186 40.48 96.4146 40.224 98.5266 39.712C100.671 39.168 103.039 38.352 105.631 37.264C106.111 37.072 106.511 36.976 106.831 36.976C107.343 36.976 107.727 37.168 107.983 37.552C108.239 37.936 108.367 38.432 108.367 39.04C108.367 40.992 107.311 42.432 105.199 43.36C102.927 44.352 100.559 45.088 98.0946 45.568C95.6626 46.016 93.3426 46.24 91.1346 46.24ZM128.612 31.264C129.028 31.264 129.348 31.472 129.572 31.888C129.796 32.304 129.908 32.832 129.908 33.472C129.908 35.008 129.444 35.92 128.516 36.208C126.596 36.88 124.484 37.264 122.18 37.36C121.572 40.048 120.372 42.208 118.58 43.84C116.788 45.44 114.756 46.24 112.484 46.24C110.564 46.24 108.916 45.776 107.54 44.848C106.196 43.92 105.172 42.688 104.468 41.152C103.764 39.616 103.412 37.952 103.412 36.16C103.412 33.728 103.876 31.568 104.804 29.68C105.732 27.76 107.012 26.272 108.644 25.216C110.276 24.128 112.084 23.584 114.068 23.584C116.5 23.584 118.452 24.432 119.924 26.128C121.428 27.792 122.308 29.856 122.564 32.32C124.068 32.224 125.86 31.904 127.94 31.36C128.196 31.296 128.42 31.264 128.612 31.264ZM112.868 41.152C113.892 41.152 114.772 40.736 115.508 39.904C116.276 39.072 116.788 37.872 117.044 36.304C116.052 35.632 115.284 34.752 114.74 33.664C114.228 32.576 113.972 31.424 113.972 30.208C113.972 29.696 114.02 29.184 114.116 28.672H113.876C112.596 28.672 111.524 29.296 110.66 30.544C109.828 31.76 109.412 33.488 109.412 35.728C109.412 37.488 109.748 38.832 110.42 39.76C111.124 40.688 111.94 41.152 112.868 41.152ZM129.196 46.24C127.98 46.24 127.116 45.6 126.604 44.32C126.124 43.04 125.884 40.992 125.884 38.176C125.884 34.016 126.476 30.064 127.66 26.32C127.948 25.392 128.412 24.72 129.052 24.304C129.724 23.856 130.652 23.632 131.836 23.632C132.476 23.632 132.924 23.712 133.18 23.872C133.436 24.032 133.564 24.336 133.564 24.784C133.564 25.296 133.324 26.448 132.844 28.24C132.524 29.52 132.268 30.64 132.076 31.6C131.884 32.56 131.724 33.744 131.596 35.152C132.652 32.4 133.836 30.16 135.148 28.432C136.46 26.704 137.74 25.472 138.988 24.736C140.268 24 141.436 23.632 142.492 23.632C144.572 23.632 145.612 24.672 145.612 26.752C145.612 28 145.26 30.256 144.556 33.52C143.948 36.304 143.644 38.144 143.644 39.04C143.644 40.32 144.108 40.96 145.036 40.96C145.676 40.96 146.428 40.576 147.292 39.808C148.188 39.008 149.372 37.728 150.844 35.968C151.228 35.52 151.66 35.296 152.14 35.296C152.556 35.296 152.876 35.488 153.1 35.872C153.356 36.256 153.484 36.784 153.484 37.456C153.484 38.736 153.18 39.728 152.572 40.432C151.196 42.128 149.708 43.52 148.108 44.608C146.54 45.696 144.748 46.24 142.732 46.24C141.1 46.24 139.868 45.776 139.036 44.848C138.204 43.888 137.788 42.512 137.788 40.72C137.788 39.824 138.012 38.224 138.46 35.92C138.876 33.904 139.084 32.512 139.084 31.744C139.084 31.232 138.908 30.976 138.556 30.976C138.14 30.976 137.548 31.52 136.78 32.608C136.044 33.664 135.276 35.072 134.476 36.832C133.708 38.592 133.084 40.448 132.604 42.4C132.252 43.904 131.836 44.928 131.356 45.472C130.908 45.984 130.188 46.24 129.196 46.24ZM176.865 35.296C177.281 35.296 177.601 35.488 177.825 35.872C178.081 36.256 178.209 36.784 178.209 37.456C178.209 38.736 177.905 39.728 177.297 40.432C175.985 42.032 174.545 43.408 172.977 44.56C171.409 45.68 169.857 46.24 168.321 46.24C165.889 46.24 164.033 44.816 162.753 41.968C161.409 43.664 160.225 44.8 159.201 45.376C158.209 45.952 157.041 46.24 155.697 46.24C153.745 46.24 152.129 45.52 150.849 44.08C149.601 42.608 148.977 40.704 148.977 38.368C148.977 35.808 149.521 33.44 150.609 31.264C151.697 29.056 153.185 27.264 155.073 25.888C156.993 24.48 159.137 23.648 161.505 23.392C162.113 17.184 163.265 11.888 164.961 7.504C166.689 3.088 168.945 0.879997 171.729 0.879997C173.105 0.879997 174.241 1.504 175.137 2.752C176.065 4 176.529 5.888 176.529 8.416C176.529 12 175.649 16.192 173.889 20.992C172.129 25.792 169.777 30.72 166.833 35.776C166.961 37.632 167.233 38.96 167.649 39.76C168.097 40.56 168.657 40.96 169.329 40.96C170.193 40.96 171.073 40.576 171.969 39.808C172.865 39.04 174.065 37.76 175.569 35.968C175.953 35.52 176.385 35.296 176.865 35.296ZM171.201 5.584C170.593 5.584 169.985 6.672 169.377 8.848C168.769 10.992 168.241 13.808 167.793 17.296C167.377 20.784 167.073 24.432 166.881 28.24C170.465 20.432 172.257 14.16 172.257 9.424C172.257 8.208 172.145 7.264 171.921 6.592C171.729 5.92 171.489 5.584 171.201 5.584ZM157.377 41.392C157.985 41.392 158.593 41.152 159.201 40.672C159.809 40.16 160.577 39.232 161.505 37.888C161.185 36.16 161.025 34.224 161.025 32.08C161.025 31.312 161.057 30.064 161.121 28.336C159.361 28.88 157.889 30.064 156.705 31.888C155.553 33.68 154.977 35.68 154.977 37.888C154.977 40.224 155.777 41.392 157.377 41.392ZM180.592 20.464C179.248 20.464 178.24 20.16 177.568 19.552C176.896 18.912 176.56 18.032 176.56 16.912C176.56 15.792 176.992 14.864 177.856 14.128C178.752 13.36 179.856 12.976 181.168 12.976C182.352 12.976 183.312 13.264 184.048 13.84C184.784 14.416 185.152 15.232 185.152 16.288C185.152 17.568 184.736 18.592 183.904 19.36C183.072 20.096 181.968 20.464 180.592 20.464ZM180.208 46.24C178.128 46.24 176.608 45.504 175.648 44.032C174.72 42.56 174.256 40.608 174.256 38.176C174.256 36.736 174.432 34.896 174.784 32.656C175.168 30.384 175.648 28.272 176.224 26.32C176.512 25.296 176.896 24.592 177.376 24.208C177.856 23.824 178.624 23.632 179.68 23.632C181.312 23.632 182.128 24.176 182.128 25.264C182.128 26.064 181.824 27.92 181.216 30.832C180.448 34.352 180.064 36.736 180.064 37.984C180.064 38.944 180.192 39.68 180.448 40.192C180.704 40.704 181.136 40.96 181.744 40.96C182.32 40.96 183.04 40.56 183.904 39.76C184.768 38.96 185.92 37.696 187.36 35.968C187.744 35.52 188.176 35.296 188.656 35.296C189.072 35.296 189.392 35.488 189.616 35.872C189.872 36.256 190 36.784 190 37.456C190 38.736 189.696 39.728 189.088 40.432C185.92 44.304 182.96 46.24 180.208 46.24ZM207.525 35.296C207.941 35.296 208.261 35.488 208.484 35.872C208.741 36.256 208.869 36.784 208.869 37.456C208.869 38.736 208.565 39.728 207.957 40.432C206.581 42.128 205.077 43.52 203.445 44.608C201.813 45.696 199.941 46.24 197.829 46.24C191.301 46.24 188.037 41.648 188.037 32.464C188.037 31.056 188.085 29.632 188.181 28.192H186.309C185.349 28.192 184.693 28.016 184.341 27.664C184.021 27.312 183.861 26.752 183.861 25.984C183.861 24.192 184.581 23.296 186.021 23.296H188.757C189.301 19.776 190.133 16.56 191.253 13.648C192.373 10.736 193.717 8.416 195.285 6.688C196.885 4.96 198.597 4.096 200.421 4.096C201.765 4.096 202.821 4.688 203.589 5.872C204.357 7.056 204.741 8.544 204.741 10.336C204.741 15.296 202.661 19.616 198.501 23.296H203.877C204.389 23.296 204.757 23.408 204.981 23.632C205.205 23.856 205.317 24.272 205.317 24.88C205.317 27.088 203.509 28.192 199.893 28.192H194.037C193.973 29.792 193.941 31.04 193.941 31.936C193.941 35.264 194.325 37.6 195.093 38.944C195.893 40.288 197.141 40.96 198.837 40.96C200.213 40.96 201.429 40.544 202.485 39.712C203.541 38.88 204.789 37.632 206.229 35.968C206.613 35.52 207.045 35.296 207.525 35.296ZM199.125 8.704C198.645 8.704 198.101 9.312 197.493 10.528C196.917 11.712 196.357 13.376 195.812 15.52C195.301 17.632 194.869 19.984 194.517 22.576C196.405 20.944 197.813 19.12 198.741 17.104C199.701 15.056 200.181 13.2 200.181 11.536C200.181 9.648 199.829 8.704 199.125 8.704ZM211.248 20.464C209.904 20.464 208.896 20.16 208.224 19.552C207.552 18.912 207.216 18.032 207.216 16.912C207.216 15.792 207.648 14.864 208.512 14.128C209.408 13.36 210.512 12.976 211.824 12.976C213.008 12.976 213.968 13.264 214.704 13.84C215.44 14.416 215.808 15.232 215.808 16.288C215.808 17.568 215.392 18.592 214.56 19.36C213.728 20.096 212.624 20.464 211.248 20.464ZM210.864 46.24C208.784 46.24 207.264 45.504 206.304 44.032C205.376 42.56 204.912 40.608 204.912 38.176C204.912 36.736 205.088 34.896 205.44 32.656C205.824 30.384 206.304 28.272 206.88 26.32C207.168 25.296 207.552 24.592 208.032 24.208C208.512 23.824 209.28 23.632 210.336 23.632C211.968 23.632 212.784 24.176 212.784 25.264C212.784 26.064 212.48 27.92 211.872 30.832C211.104 34.352 210.72 36.736 210.72 37.984C210.72 38.944 210.848 39.68 211.104 40.192C211.36 40.704 211.792 40.96 212.4 40.96C212.976 40.96 213.696 40.56 214.56 39.76C215.424 38.96 216.576 37.696 218.016 35.968C218.4 35.52 218.832 35.296 219.312 35.296C219.728 35.296 220.048 35.488 220.272 35.872C220.528 36.256 220.656 36.784 220.656 37.456C220.656 38.736 220.352 39.728 219.744 40.432C216.576 44.304 213.616 46.24 210.864 46.24ZM241.253 31.264C241.669 31.264 241.989 31.472 242.213 31.888C242.437 32.304 242.549 32.832 242.549 33.472C242.549 35.008 242.085 35.92 241.157 36.208C239.237 36.88 237.125 37.264 234.821 37.36C234.213 40.048 233.013 42.208 231.221 43.84C229.429 45.44 227.397 46.24 225.125 46.24C223.205 46.24 221.557 45.776 220.181 44.848C218.837 43.92 217.813 42.688 217.109 41.152C216.405 39.616 216.053 37.952 216.053 36.16C216.053 33.728 216.517 31.568 217.445 29.68C218.373 27.76 219.653 26.272 221.285 25.216C222.917 24.128 224.725 23.584 226.709 23.584C229.141 23.584 231.093 24.432 232.565 26.128C234.069 27.792 234.949 29.856 235.205 32.32C236.709 32.224 238.501 31.904 240.581 31.36C240.837 31.296 241.061 31.264 241.253 31.264ZM225.509 41.152C226.533 41.152 227.413 40.736 228.149 39.904C228.917 39.072 229.429 37.872 229.685 36.304C228.693 35.632 227.925 34.752 227.381 33.664C226.869 32.576 226.613 31.424 226.613 30.208C226.613 29.696 226.661 29.184 226.757 28.672H226.517C225.237 28.672 224.165 29.296 223.301 30.544C222.469 31.76 222.053 33.488 222.053 35.728C222.053 37.488 222.389 38.832 223.061 39.76C223.765 40.688 224.581 41.152 225.509 41.152ZM241.837 46.24C240.621 46.24 239.757 45.6 239.245 44.32C238.765 43.04 238.525 40.992 238.525 38.176C238.525 34.016 239.117 30.064 240.301 26.32C240.589 25.392 241.053 24.72 241.693 24.304C242.365 23.856 243.293 23.632 244.477 23.632C245.117 23.632 245.565 23.712 245.821 23.872C246.077 24.032 246.205 24.336 246.205 24.784C246.205 25.296 245.965 26.448 245.485 28.24C245.165 29.52 244.909 30.64 244.717 31.6C244.525 32.56 244.365 33.744 244.237 35.152C245.293 32.4 246.477 30.16 247.789 28.432C249.101 26.704 250.381 25.472 251.629 24.736C252.909 24 254.077 23.632 255.133 23.632C256.157 23.632 256.925 23.904 257.437 24.448C257.981 24.96 258.253 25.728 258.253 26.752C258.253 27.584 258.077 29.152 257.725 31.456C257.405 33.408 257.149 35.264 256.957 37.024C256.765 38.752 256.669 40.688 256.669 42.832C256.669 44.048 256.413 44.928 255.901 45.472C255.421 45.984 254.621 46.24 253.501 46.24C252.445 46.24 251.677 45.968 251.197 45.424C250.717 44.88 250.477 44.064 250.477 42.976C250.477 41.696 250.701 39.584 251.149 36.64C251.533 34.08 251.725 32.448 251.725 31.744C251.725 31.232 251.549 30.976 251.197 30.976C250.781 30.976 250.189 31.52 249.421 32.608C248.685 33.664 247.917 35.072 247.117 36.832C246.349 38.592 245.725 40.448 245.245 42.4C244.893 43.904 244.477 44.928 243.997 45.472C243.549 45.984 242.829 46.24 241.837 46.24Z"/></svg>