<svg width="37" height="39" viewBox="0 0 37 39" fill="none" xmlns="http://www.w3.org/2000/svg">
<rect width="2.17647" height="37" fill="white"/>
<rect width="37" height="2.17647" fill="white"/>
<path d="M10.8823 31.1575C17.7418 31.6142 31.4074 28.1985 31.1936 10.8824" stroke="white" stroke-width="2"/>
<path d="M9.29287 31.7071C8.90234 31.3166 8.90234 30.6834 9.29287 30.2929L15.6568 23.9289C16.0474 23.5384 16.6805 23.5384 17.071 23.9289C17.4616 24.3195 17.4616 24.9526 17.071 25.3431L11.4142 31L17.071 36.6569C17.4616 37.0474 17.4616 37.6805 17.071 38.0711C16.6805 38.4616 16.0474 38.4616 15.6568 38.0711L9.29287 31.7071ZM10.7255 32H9.99997V30H10.7255V32Z" fill="white"/>
</svg>
