<svg width="39" height="37" viewBox="0 0 39 37" fill="none" xmlns="http://www.w3.org/2000/svg">
<rect width="2.17647" height="37" fill="white"/>
<rect width="37" height="2.17647" fill="white"/>
<path d="M10.8823 31.1575C17.7418 31.6142 31.4074 28.1985 31.1936 10.8824" stroke="white" stroke-width="2"/>
<path d="M30.489 9.44976C30.8795 9.05923 31.5127 9.05923 31.9032 9.44976L38.2672 15.8137C38.6577 16.2042 38.6577 16.8374 38.2672 17.2279C37.8766 17.6185 37.2435 17.6185 36.853 17.2279L31.1961 11.5711L25.5393 17.2279C25.1487 17.6185 24.5156 17.6185 24.125 17.2279C23.7345 16.8374 23.7345 16.2042 24.125 15.8137L30.489 9.44976ZM30.1961 10.8824V10.1569H32.1961V10.8824H30.1961Z" fill="white"/>
</svg>
